# Blender 3.4.1
# www.blender.org
mtllib Grass.mtl
o Grass1
v 0.039701 -0.013587 0.039520
v 0.006512 0.485261 0.020772
v -0.048557 -0.013587 0.040277
v -0.055524 0.485261 0.018280
v 0.038945 -0.013587 -0.048738
v -0.015868 0.485261 -0.023026
v -0.049313 -0.013587 -0.047982
v -0.059200 0.485261 -0.043823
v -0.021036 0.998179 -0.011580
v -0.047238 0.998179 -0.007834
v -0.044685 0.998179 -0.035257
v -0.017493 0.998179 -0.038094
v -0.024302 1.300223 -0.140105
v 0.083928 -0.023371 0.094537
v 0.123697 0.391554 0.189696
v 0.020709 -0.023371 0.132228
v 0.078560 0.391554 0.216606
v 0.046237 -0.023371 0.031318
v 0.098029 0.407341 0.146644
v -0.016982 -0.023371 0.069010
v 0.052893 0.407341 0.173555
v 0.195768 0.633421 0.335230
v 0.172317 0.633421 0.349212
v 0.163895 0.655214 0.335086
v 0.187346 0.655214 0.321104
v 0.282440 0.719551 0.507261
v -0.082304 -0.040852 0.030913
v -0.234895 0.352319 0.101145
v -0.110872 -0.037113 -0.036816
v -0.255291 0.354989 0.052789
v -0.015147 -0.028958 0.003243
v -0.191207 0.375977 0.084024
v -0.043714 -0.025219 -0.064486
v -0.211603 0.378647 0.035668
v -0.418876 0.565168 0.176780
v -0.429473 0.566555 0.151656
v -0.417291 0.590691 0.147850
v -0.406694 0.589304 0.172974
v -0.610660 0.619697 0.245848
v -0.078288 -0.013587 -0.106760
v -0.089909 0.256189 -0.089734
v -0.081921 -0.013587 -0.059166
v -0.094093 0.256189 -0.056419
v -0.125881 -0.013587 -0.110393
v -0.114535 0.256189 -0.079679
v -0.129514 -0.013587 -0.062800
v -0.127725 0.256189 -0.057282
v -0.108604 0.533574 -0.076371
v -0.107785 0.533574 -0.062080
v -0.122445 0.533574 -0.064711
v -0.122729 0.533574 -0.079494
v -0.178010 0.696918 -0.080495
v 0.151807 -0.016374 -0.006419
v 0.184444 0.372326 0.015054
v 0.151468 -0.018441 0.070863
v 0.184201 0.370844 0.070480
v 0.091153 -0.008734 -0.006481
v 0.140944 0.377805 0.015010
v 0.090815 -0.010801 0.070802
v 0.140701 0.376323 0.070436
v 0.175222 0.728571 0.034594
v 0.175067 0.727626 0.069928
v 0.149418 0.715687 0.069497
v 0.149572 0.716632 0.034162
v 0.169169 0.905939 0.045630
v 0.169069 0.905331 0.068335
v 0.149189 0.880619 0.067587
v 0.149288 0.881226 0.044882
v 0.191783 1.082310 0.061806
v 0.059004 -0.023588 -0.126436
v 0.156598 0.297426 -0.164788
v 0.094347 -0.026747 -0.080386
v 0.181832 0.295171 -0.131909
v 0.013093 -0.019996 -0.090953
v 0.126357 0.312300 -0.140558
v 0.048437 -0.023155 -0.044903
v 0.151591 0.310044 -0.107679
v 0.279342 0.479376 -0.233924
v 0.292452 0.478204 -0.216842
v 0.283607 0.496162 -0.208821
v 0.270496 0.497334 -0.225904
v 0.411339 0.537213 -0.317652
v -0.048362 -0.026192 -0.110233
v -0.050985 0.212804 -0.249907
v -0.003671 -0.032709 -0.125443
v -0.019077 0.208151 -0.260766
v -0.031937 -0.014033 -0.067182
v -0.039369 0.230868 -0.223516
v 0.012754 -0.020550 -0.082391
v -0.007461 0.226215 -0.234375
v -0.072857 0.334838 -0.392072
v -0.056279 0.332421 -0.397714
v -0.052015 0.348644 -0.392136
v -0.068592 0.351062 -0.386493
v -0.105099 0.355268 -0.523256
v -0.029752 -0.019486 0.136655
v -0.053517 0.178458 0.192640
v -0.069343 -0.018393 0.120900
v -0.081117 0.179220 0.181657
v -0.014007 -0.013439 0.097510
v -0.042541 0.182674 0.165351
v -0.053598 -0.012346 0.081754
v -0.070141 0.183436 0.154367
v -0.050176 0.350912 0.180190
v -0.066778 0.351370 0.173583
v -0.060175 0.353906 0.157168
v -0.043573 0.353448 0.163774
v -0.085461 0.511406 0.194396
vn -0.0349 0.0429 0.9985
vn 0.0048 0.0385 0.9992
vn 0.0086 0.0381 0.9992
vn -0.9984 -0.0195 0.0536
vn -0.9998 -0.0141 0.0126
vn -0.9999 -0.0136 0.0086
vn 0.0181 0.0487 -0.9986
vn 0.3897 0.0199 -0.9207
vn -0.0086 0.0505 -0.9987
vn 0.9969 0.0700 -0.0370
vn 0.9053 0.1158 -0.4088
vn 0.9978 0.0661 -0.0086
vn -0.0000 -1.0000 -0.0000
vn -0.9984 0.0195 0.0539
vn -0.9963 0.0289 -0.0814
vn -0.9953 0.0297 -0.0927
vn -0.0983 -0.3204 -0.9422
vn 0.4165 0.0017 -0.9092
vn -0.0731 -0.0279 -0.9969
vn -0.1037 -0.0295 -0.9942
vn -0.0341 0.0604 0.9976
vn 0.1279 0.0491 0.9906
vn 0.1413 0.0481 0.9888
vn 0.8986 0.0188 -0.4383
vn 0.9950 0.0078 0.0992
vn 0.8903 0.0191 -0.4549
vn 0.1303 0.3894 0.9118
vn 0.9890 0.0669 0.1321
vn -0.9951 0.0350 -0.0927
vn 0.4973 -0.2389 0.8341
vn 0.4973 -0.2389 0.8340
vn -0.8587 0.0150 0.5123
vn -0.8567 0.0146 0.5155
vn -0.8588 0.0150 0.5120
vn -0.4916 0.2799 -0.8246
vn 0.8631 0.0327 -0.5039
vn 0.8588 0.0337 -0.5112
vn 0.8584 0.0338 -0.5118
vn -0.8510 0.0401 0.5236
vn -0.8408 0.0293 0.5405
vn -0.8516 0.0408 0.5227
vn -0.1509 0.9556 -0.2532
vn -0.4020 0.6194 -0.6743
vn 0.4255 -0.5563 0.7138
vn 0.4256 -0.5563 0.7138
vn 0.8653 0.0401 -0.4997
vn 0.8753 0.0293 -0.4827
vn 0.8768 0.0276 -0.4801
vn 0.2095 -0.9125 0.3513
vn 0.8842 0.0400 -0.4655
vn -0.8299 0.0400 0.5565
vn -0.8550 -0.3924 0.3390
vn -0.3903 0.0655 -0.9183
vn -0.3937 0.0645 -0.9170
vn -0.3900 0.0656 -0.9185
vn 0.8397 0.4310 -0.3304
vn 0.3753 -0.0200 0.9267
vn 0.3829 -0.0176 0.9236
vn 0.3835 -0.0175 0.9234
vn 0.1296 -0.9855 -0.1091
vn -0.4057 0.0881 -0.9098
vn -0.4222 0.0742 -0.9034
vn -0.4048 0.0888 -0.9101
vn 0.1451 0.9894 -0.0066
vn 0.6360 0.7374 -0.2276
vn -0.6861 -0.6825 0.2517
vn 0.3699 -0.0134 0.9290
vn 0.3532 -0.0274 0.9351
vn 0.3507 -0.0294 0.9360
vn -0.2550 -0.9654 0.0542
vn 0.3338 -0.0199 0.9424
vn -0.4408 0.0815 -0.8939
vn 0.9919 0.0429 0.1193
vn 0.9961 0.0385 0.0799
vn 0.9964 0.0381 0.0761
vn -0.0311 -0.0195 0.9993
vn -0.0721 -0.0141 0.9973
vn -0.0761 -0.0136 0.9970
vn -0.9935 0.0487 -0.1025
vn -0.8844 0.0199 -0.4663
vn -0.9958 0.0505 -0.0760
vn 0.0475 0.0700 -0.9964
vn -0.3306 0.1158 -0.9366
vn 0.0759 0.0661 -0.9949
vn -0.0309 0.0195 0.9993
vn -0.1655 0.0289 0.9858
vn -0.1766 0.0297 0.9838
vn -0.9471 -0.3204 0.0182
vn -0.8706 0.0017 -0.4919
vn -0.9995 -0.0279 -0.0115
vn -0.9994 -0.0295 0.0192
vn 0.9911 0.0604 0.1184
vn 0.9978 0.0491 -0.0436
vn 0.9972 0.0481 -0.0571
vn -0.3607 0.0188 -0.9325
vn 0.1831 0.0078 -0.9831
vn -0.3779 0.0191 -0.9256
vn 0.9196 0.3894 -0.0527
vn 0.2154 0.0669 -0.9742
vn -0.1766 0.0350 0.9837
vn 0.9965 -0.0838 0.0021
vn -0.0043 0.0024 1.0000
vn -0.0009 0.0011 1.0000
vn -0.9918 0.1278 -0.0009
vn 0.0079 0.0545 -0.9985
vn 0.0044 0.0558 -0.9984
vn -0.1249 -0.9918 -0.0271
vn -0.9997 0.0257 -0.0037
vn -0.0151 0.0647 -0.9978
vn -0.0364 0.0611 -0.9975
vn -0.0380 0.0608 -0.9974
vn 0.9997 0.0256 0.0051
vn 0.9995 0.0296 0.0052
vn -0.0076 0.0546 -0.9985
vn -0.0086 0.0545 -0.9985
vn -0.0163 0.0012 0.9999
vn -0.0008 0.0019 1.0000
vn -0.9784 0.2067 0.0012
vn -0.0239 0.0113 0.9997
vn -0.0451 0.0077 0.9990
vn -0.0222 0.0115 0.9997
vn -1.0000 -0.0014 -0.0044
vn 0.9994 0.0338 0.0053
vn 0.9919 -0.1273 0.0009
vn -0.0900 0.1024 -0.9907
vn -0.0987 0.0493 0.9939
vn 0.7472 -0.2981 -0.5939
vn 0.6093 -0.0394 0.7919
vn 0.6123 -0.0401 0.7896
vn 0.6091 -0.0393 0.7921
vn -0.7352 0.3383 0.5874
vn -0.5977 0.0863 -0.7971
vn -0.6043 0.0879 -0.7919
vn -0.6048 0.0880 -0.7915
vn -0.0821 -0.9966 -0.0053
vn 0.6217 -0.0151 0.7831
vn 0.6363 -0.0272 0.7709
vn 0.6209 -0.0145 0.7838
vn -0.1543 0.9706 0.1850
vn -0.5691 0.6659 0.4825
vn 0.6106 -0.6057 -0.5102
vn -0.5931 0.0934 -0.7997
vn -0.5784 0.0814 -0.8117
vn -0.5761 0.0796 -0.8135
vn 0.2481 -0.9347 -0.2545
vn -0.5615 0.0908 -0.8225
vn 0.6517 -0.0177 0.7583
vn -0.3447 -0.4765 -0.8088
vn 0.9382 -0.1224 -0.3237
vn 0.9369 -0.1238 -0.3270
vn 0.9383 -0.1223 -0.3234
vn 0.3427 0.5129 0.7871
vn -0.9390 0.1656 0.3013
vn -0.9361 0.1688 0.3087
vn -0.9358 0.1690 0.3093
vn -0.0421 -0.9572 0.2864
vn 0.9338 -0.1018 -0.3430
vn 0.9265 -0.1172 -0.3576
vn 0.9342 -0.1009 -0.3421
vn 0.1418 0.9899 -0.0074
vn 0.2967 0.7932 0.5318
vn -0.3098 -0.7445 -0.5914
vn -0.9400 0.1715 0.2948
vn -0.9472 0.1560 0.2801
vn -0.9483 0.1537 0.2778
vn -0.1794 -0.9778 -0.1082
vn -0.9523 0.1612 0.2592
vn 0.9191 -0.1117 -0.3778
vn -0.3604 -0.2937 0.8853
vn -0.9293 0.0568 -0.3650
vn -0.9293 0.0585 -0.3647
vn 0.3545 0.3513 -0.8665
vn 0.9273 0.0073 0.3741
vn 0.9274 0.0056 0.3739
vn 0.0289 -0.9896 -0.1413
vn -0.9293 0.0603 -0.3645
vn 0.3625 0.2691 -0.8923
vn 0.3696 -0.0063 -0.9292
vn -0.3670 0.0741 0.9273
vn 0.9272 0.0091 0.3744
vn -0.3687 -0.1621 0.9153
vn 0.9060 0.1647 0.3899
vn -0.9230 -0.0583 -0.3803
vn -0.0401 0.0435 0.9982
vn -0.9980 -0.0203 0.0591
vn 0.4326 0.0161 -0.9014
vn 0.8840 0.1204 -0.4517
vn -0.9981 0.0191 0.0591
vn 0.4327 0.0028 -0.9015
vn -0.0401 0.0608 0.9973
vn 0.9912 0.0070 0.1324
vn -0.8565 0.0145 0.5160
vn 0.8637 0.0326 -0.5030
vn -0.8393 0.0276 0.5430
vn 0.8647 0.0408 -0.5006
vn -0.3941 0.0643 -0.9168
vn 0.3743 -0.0203 0.9271
vn -0.4247 0.0721 -0.9025
vn 0.3708 -0.0127 0.9286
vn 0.9913 0.0435 0.1245
vn -0.0256 -0.0203 0.9995
vn -0.8616 0.0161 -0.5074
vn -0.3752 0.1204 -0.9191
vn -0.0256 0.0191 0.9995
vn -0.8617 0.0028 -0.5075
vn 0.9904 0.0608 0.1244
vn 0.2159 0.0070 -0.9764
vn 0.0080 0.0554 -0.9984
vn -0.0135 0.0650 -0.9978
vn -0.0173 0.0011 0.9998
vn -0.0467 0.0074 0.9989
vn 0.6127 -0.0402 0.7893
vn -0.5968 0.0861 -0.7977
vn 0.6385 -0.0290 0.7691
vn -0.5939 0.0941 -0.7990
vn 0.9367 -0.1240 -0.3274
vn -0.9394 0.1652 0.3004
vn 0.9253 -0.1195 -0.3598
vn -0.9396 0.1724 0.2956
vt 0.001001 0.298999
vt 0.316790 0.198999
vt 0.209525 0.148999
vt 0.262157 0.201001
vt 0.209525 0.298999
vt 0.316790 0.001001
vt 0.209525 0.301001
vt 0.104262 0.198999
vt 0.209525 0.051001
vt 0.001001 0.201001
vt 0.209525 0.201001
vt 0.104262 0.001001
vt 0.314788 0.151001
vt 0.209525 0.348999
vt 0.106264 0.001001
vt 0.367420 0.198999
vt 0.106264 0.148999
vt 0.314788 0.001001
vt 0.367420 0.001001
vt 0.420052 0.001001
vt 0.211527 0.201001
vt 0.001001 0.198999
vt 0.106264 0.048999
vt 0.106264 0.051001
vt 0.001001 0.001001
vt 0.314788 0.048999
vt 0.314788 0.198999
vt 0.369422 0.001001
vt 0.211527 0.951001
vt 0.580949 0.398999
vt 0.001001 0.301001
vt 0.262157 0.398999
vt 0.001001 0.348999
vt 0.211527 0.997998
vt 0.629577 0.201001
vt 0.106264 0.151001
vt 0.106264 0.198999
vt 0.420052 0.952002
vt 0.579948 0.201001
vt 0.369422 0.198999
vt 0.420052 0.998999
vt 0.420052 0.198999
vt 0.630578 0.398999
vt 0.211527 0.398999
vt 0.212528 0.998999
vt 0.419051 0.951001
vt 0.630578 0.202002
vt 0.579948 0.397998
vt 0.001001 0.398999
vt 0.316790 0.398999
vt 0.314788 0.148999
vt 0.209525 0.398999
vt 0.316790 0.201001
vt 0.209525 0.451001
vt 0.472683 0.001001
vt 0.314788 0.051001
vt 0.001001 0.351001
vt 0.314788 0.398999
vt 0.209525 0.498999
vt 0.209525 0.351001
vt 0.314788 0.201001
vt 0.420052 0.401001
vt 0.001001 0.401001
vt 0.367420 0.398999
vt 0.211527 0.148999
vt 0.209525 0.401001
vt 0.367420 0.201001
vt 0.420052 0.201001
vt 0.422054 0.001001
vt 0.264159 0.398999
vt 0.001001 0.448999
vt 0.211527 0.051001
vt 0.420052 0.448999
vt 0.264159 0.201001
vt 0.209525 0.448999
vt 0.369422 0.201001
vt 0.472683 0.198999
vt 0.896739 0.798999
vt 0.209525 0.698999
vt 0.001001 0.451001
vt 0.946367 0.798999
vt 0.001001 0.651001
vt 0.211527 0.401001
vt 0.001001 0.498999
vt 0.841104 0.398999
vt 0.001001 0.697998
vt 0.211527 0.448999
vt 0.369422 0.398999
vt 0.791476 0.398999
vt 0.420052 0.398999
vt 0.209525 0.652002
vt 0.422054 0.198999
vt 0.841104 0.202002
vt 0.946367 0.602002
vt 0.002002 0.698999
vt 0.208524 0.651001
vt 0.211527 0.498999
vt 0.474685 0.198999
vt 0.525315 0.498999
vt 0.420052 0.498999
vt 0.474685 0.001001
vt 0.209525 0.551001
vt 0.577946 0.001001
vt 0.525315 0.401001
vt 0.211527 0.451001
vt 0.472683 0.398999
vt 0.420052 0.451001
vt 0.472683 0.201001
vt 0.420052 0.501001
vt 0.209525 0.598999
vt 0.001001 0.501001
vt 0.525315 0.198999
vt 0.422054 0.498999
vt 0.209525 0.501001
vt 0.525315 0.001001
vt 0.525315 0.201001
vt 0.527317 0.001001
vt 0.422054 0.398999
vt 0.001001 0.548999
vt 0.422054 0.401001
vt 0.420052 0.548999
vt 0.422054 0.201001
vt 0.209525 0.548999
vt 0.474685 0.201001
vt 0.577946 0.198999
vt 0.893736 0.798999
vt 0.630578 0.848999
vt 0.001001 0.551001
vt 0.001001 0.598999
vt 0.844107 0.798999
vt 0.422054 0.801001
vt 0.211527 0.501001
vt 0.840103 0.201001
vt 0.422054 0.847998
vt 0.211527 0.548999
vt 0.474685 0.398999
vt 0.790475 0.201001
vt 0.525315 0.398999
vt 0.630578 0.802002
vt 0.527317 0.198999
vt 0.790475 0.397998
vt 0.893736 0.602002
vt 0.423055 0.848999
vt 0.629577 0.801001
vt 0.211527 0.598999
vt 0.579948 0.198999
vt 0.630578 0.498999
vt 0.683210 0.201001
vt 0.420052 0.598999
vt 0.579948 0.001001
vt 0.209525 0.601001
vt 0.577946 0.398999
vt 0.630578 0.451001
vt 0.211527 0.551001
vt 0.420052 0.551001
vt 0.577946 0.201001
vt 0.630578 0.551001
vt 0.209525 0.648999
vt 0.422054 0.501001
vt 0.630578 0.198999
vt 0.579948 0.498999
vt 0.630578 0.501001
vt 0.630578 0.001001
vt 0.683210 0.001001
vt 0.632580 0.201001
vt 0.527317 0.398999
vt 0.422054 0.548999
vt 0.579948 0.451001
vt 0.527317 0.201001
vt 0.630578 0.548999
vt 0.630578 0.598999
vt 0.632580 0.001001
vt 0.209525 0.998999
vt 0.630578 0.902002
vt 0.001001 0.601001
vt 0.683210 0.398999
vt 0.001001 0.648999
vt 0.209525 0.952002
vt 0.422054 0.947998
vt 0.422054 0.551001
vt 0.422054 0.598999
vt 0.892735 0.601001
vt 0.422054 0.901001
vt 0.632580 0.198999
vt 0.843106 0.601001
vt 0.683210 0.198999
vt 0.630578 0.948999
vt 0.632580 0.398999
vt 0.843106 0.797998
vt 0.002002 0.998999
vt 0.423055 0.948999
vt 0.629577 0.901001
vt 0.211527 0.648999
vt 0.685212 0.198999
vt 0.843106 0.848999
vt 0.420052 0.648999
vt 0.685212 0.001001
vt 0.685212 0.401001
vt 0.630578 0.698999
vt 0.683210 0.598999
vt 0.946367 0.848999
vt 0.211527 0.601001
vt 0.735841 0.401001
vt 0.420052 0.601001
vt 0.683210 0.401001
vt 0.737843 0.001001
vt 0.422054 0.601001
vt 0.735841 0.198999
vt 0.843106 0.801001
vt 0.630578 0.601001
vt 0.735841 0.001001
vt 0.735841 0.201001
vt 0.630578 0.651001
vt 0.422054 0.648999
vt 0.632580 0.598999
vt 0.946367 0.801001
vt 0.788473 0.001001
vt 0.632580 0.401001
vt 0.630578 0.648999
vt 0.685212 0.201001
vt 0.422054 0.698999
vt 0.420052 0.698999
vt 0.685212 0.598999
vt 0.420052 0.701001
vt 0.420052 0.748999
vt 0.735841 0.598999
vt 0.737843 0.198999
vt 0.209525 0.701001
vt 0.209525 0.748999
vt 0.685212 0.398999
vt 0.788473 0.198999
vt 0.737843 0.201001
vt 0.735841 0.398999
vt 0.420052 0.651001
vt 0.422054 0.651001
vt 0.788473 0.201001
vt 0.211527 0.698999
vt 0.001001 0.951001
vt 0.998999 0.398999
vt 0.211527 0.701001
vt 0.001001 0.997998
vt 0.948369 0.201001
vt 0.001001 0.701001
vt 0.211527 0.748999
vt 0.945366 0.601001
vt 0.997998 0.201001
vt 0.001001 0.748999
vt 0.737843 0.398999
vt 0.895738 0.601001
vt 0.788473 0.398999
vt 0.949370 0.398999
vt 0.211527 0.651001
vt 0.895738 0.797998
vt 0.208524 0.951001
vt 0.998999 0.202002
vt 0.948369 0.397998
vt 0.788473 0.598999
vt 0.630578 0.448999
vt 0.001001 0.751001
vt 0.788473 0.401001
vt 0.209525 0.751001
vt 0.632580 0.601001
vt 0.630578 0.798999
vt 0.737843 0.598999
vt 0.422054 0.748999
vt 0.630578 0.401001
vt 0.683210 0.601001
vt 0.737843 0.401001
vt 0.630578 0.748999
vt 0.790475 0.401001
vt 0.790475 0.198999
vt 0.001001 0.798999
vt 0.579948 0.448999
vt 0.420052 0.798999
vt 0.790475 0.001001
vt 0.209525 0.798999
vt 0.630578 0.751001
vt 0.422054 0.701001
vt 0.841104 0.198999
vt 0.579948 0.401001
vt 0.841104 0.401001
vt 0.630578 0.701001
vt 0.841104 0.001001
vt 0.420052 0.751001
vt 0.422054 0.798999
vt 0.632580 0.947998
vt 0.998999 0.198999
vt 0.632580 0.798999
vt 0.632580 0.901001
vt 0.948369 0.001001
vt 0.790475 0.598999
vt 0.683210 0.798999
vt 0.841104 0.902002
vt 0.997998 0.001001
vt 0.841104 0.598999
vt 0.211527 0.751001
vt 0.841104 0.948999
vt 0.949370 0.198999
vt 0.211527 0.798999
vt 0.422054 0.751001
vt 0.633581 0.948999
vt 0.840103 0.901001
vt 0.998999 0.002002
vt 0.948369 0.197998
vt 0.735841 0.798999
vt 0.211527 0.801001
vt 0.998999 0.448999
vt 0.735841 0.601001
vt 0.420052 0.801001
vt 0.843106 0.001001
vt 0.209525 0.898999
vt 0.998999 0.401001
vt 0.685212 0.798999
vt 0.001001 0.848999
vt 0.685212 0.601001
vt 0.209525 0.848999
vt 0.790475 0.601001
vt 0.893736 0.001001
vt 0.737843 0.798999
vt 0.211527 0.848999
vt 0.948369 0.448999
vt 0.737843 0.601001
vt 0.420052 0.848999
vt 0.841104 0.848999
vt 0.209525 0.851001
vt 0.001001 0.801001
vt 0.788473 0.798999
vt 0.948369 0.401001
vt 0.841104 0.601001
vt 0.209525 0.801001
vt 0.788473 0.601001
vt 0.841104 0.801001
vt 0.001001 0.898999
vt 0.843106 0.851001
vt 0.577946 0.498999
vt 0.843106 0.198999
vt 0.893736 0.198999
vt 0.843106 0.897998
vt 0.527317 0.401001
vt 0.790475 0.798999
vt 0.946367 0.898999
vt 0.576945 0.401001
vt 0.841104 0.798999
vt 0.632580 0.801001
vt 0.946367 0.852002
vt 0.632580 0.848999
vt 0.528318 0.498999
vt 0.001001 0.851001
vt 0.844107 0.898999
vt 0.945366 0.851001
vt 0.577946 0.402002
vt 0.527317 0.497998
vt 0.998999 0.498999
vt 0.893736 0.398999
vt 0.422054 0.851001
vt 0.209525 0.948999
vt 0.893736 0.201001
vt 0.630578 0.851001
vt 0.895738 0.201001
vt 0.843106 0.398999
vt 0.211527 0.898999
vt 0.998999 0.451001
vt 0.843106 0.201001
vt 0.420052 0.898999
vt 0.895738 0.001001
vt 0.946367 0.201001
vt 0.422054 0.898999
vt 0.843106 0.598999
vt 0.948369 0.498999
vt 0.841104 0.898999
vt 0.843106 0.401001
vt 0.630578 0.898999
vt 0.209525 0.901001
vt 0.211527 0.851001
vt 0.893736 0.598999
vt 0.948369 0.451001
vt 0.420052 0.851001
vt 0.893736 0.401001
vt 0.946367 0.001001
vt 0.841104 0.851001
vt 0.896739 0.598999
vt 0.211527 0.901001
vt 0.895738 0.398999
vt 0.001001 0.948999
vt 0.946367 0.398999
vt 0.946367 0.598999
vt 0.895738 0.401001
vt 0.895738 0.198999
vt 0.946367 0.198999
vt 0.420052 0.948999
vt 0.945366 0.401001
vt 0.632580 0.851001
vt 0.420052 0.902002
vt 0.211527 0.947998
vt 0.632580 0.898999
vt 0.001001 0.901001
vt 0.212528 0.948999
vt 0.946367 0.402002
vt 0.419051 0.901001
vt 0.895738 0.597998
s 1
usemtl Grass1_1.001
f 2/5/1 3/10/2 1/1/3
f 4/12/4 7/22/5 3/8/6
f 7/23/7 6/18/8 5/15/9
f 5/16/10 2/6/11 1/2/12
f 7/24/13 1/3/13 3/9/13
f 8/27/14 10/36/15 11/37/16
f 12/41/17 11/38/17 13/45/17
f 6/20/18 11/40/19 12/42/20
f 4/14/21 9/31/22 10/33/23
f 6/21/24 9/32/25 2/4/26
f 10/34/27 9/29/27 13/46/27
f 9/30/28 12/43/28 13/47/28
f 11/39/29 10/35/29 13/48/29
f 15/52/30 16/57/31 14/49/31
f 16/58/32 21/74/33 20/70/34
f 20/71/35 19/66/35 18/63/35
f 19/67/36 14/50/37 18/64/38
f 20/72/13 14/51/13 16/56/13
f 17/62/39 24/87/40 21/73/41
f 25/89/42 24/85/42 26/93/42
f 19/68/43 24/88/43 25/90/43
f 15/54/44 23/84/45 17/59/44
f 15/55/46 25/92/47 22/77/48
f 23/81/49 22/78/49 26/94/49
f 22/79/50 25/91/50 26/95/50
f 24/86/51 23/82/51 26/96/51
f 28/100/52 29/105/52 27/97/52
f 29/106/53 34/122/54 33/118/55
f 33/119/56 32/114/56 31/111/56
f 32/115/57 27/98/58 31/112/59
f 33/120/60 27/99/60 29/104/60
f 30/109/61 37/135/62 34/121/63
f 38/137/64 37/133/64 39/141/64
f 32/116/65 37/136/65 38/138/65
f 30/110/66 35/128/66 36/129/66
f 28/103/67 38/140/68 35/125/69
f 36/130/70 35/126/70 39/142/70
f 35/127/71 38/139/71 39/143/71
f 37/134/72 36/131/72 39/144/72
f 41/149/73 42/154/74 40/145/75
f 43/156/76 46/166/77 42/152/78
f 46/167/79 45/162/80 44/159/81
f 44/160/82 41/150/83 40/146/84
f 46/168/13 40/147/13 42/153/13
f 47/171/85 49/180/86 50/181/87
f 51/185/88 50/182/88 52/189/88
f 45/164/89 50/184/90 51/186/91
f 43/158/92 48/175/93 49/177/94
f 45/165/95 48/176/96 41/148/97
f 49/178/98 48/173/98 52/190/98
f 48/174/99 51/187/99 52/191/99
f 50/183/100 49/179/100 52/192/100
f 54/196/101 55/202/101 53/193/101
f 56/205/102 59/215/103 55/200/103
f 60/219/104 57/207/104 59/214/104
f 57/208/105 54/197/106 53/194/105
f 59/216/107 53/195/107 55/201/107
f 58/212/108 63/230/108 64/233/108
f 61/222/109 68/252/110 65/237/111
f 54/198/112 62/226/113 56/203/112
f 54/199/106 64/235/114 61/221/115
f 56/206/102 63/231/116 60/217/117
f 68/249/118 67/245/118 69/253/118
f 62/228/119 67/247/120 63/229/121
f 64/236/122 67/248/122 68/250/122
f 61/224/113 66/244/123 62/225/113
f 66/241/124 65/238/124 69/254/124
f 65/239/125 68/251/125 69/255/125
f 67/246/126 66/242/126 69/256/126
f 71/260/127 72/264/127 70/257/127
f 72/265/128 77/282/129 76/278/130
f 76/279/131 75/275/131 74/271/131
f 75/276/132 70/259/133 74/272/134
f 72/266/135 74/273/135 70/258/135
f 73/270/136 80/295/137 77/281/138
f 81/297/139 80/293/139 82/301/139
f 77/284/140 81/299/140 75/274/140
f 71/262/141 79/292/141 73/267/141
f 71/263/142 81/300/143 78/285/144
f 79/289/145 78/286/145 82/302/145
f 78/287/146 81/298/146 82/303/146
f 80/294/147 79/290/147 82/304/147
f 84/308/148 85/313/148 83/305/148
f 85/314/149 90/330/150 89/326/151
f 89/327/152 88/322/152 87/319/152
f 88/323/153 83/306/154 87/320/155
f 89/328/156 83/307/156 85/312/156
f 86/317/157 93/343/158 90/329/159
f 94/345/160 93/341/160 95/349/160
f 88/324/161 93/344/161 94/346/161
f 86/318/162 91/336/162 92/337/162
f 84/311/163 94/348/164 91/333/165
f 92/338/166 91/334/166 95/350/166
f 91/335/167 94/347/167 95/351/167
f 93/342/168 92/339/168 95/352/168
f 96/354/169 99/363/169 98/360/169
f 98/361/170 103/377/171 102/374/170
f 103/378/172 100/368/172 102/375/172
f 101/372/173 96/355/174 100/367/174
f 98/362/175 100/369/175 96/353/175
f 103/379/171 105/388/176 106/389/176
f 107/393/177 106/390/177 108/397/177
f 103/380/178 107/395/178 101/370/178
f 99/366/179 104/383/179 105/385/179
f 101/373/173 104/384/180 97/356/173
f 105/386/181 104/381/181 108/398/181
f 104/382/182 107/394/182 108/399/182
f 106/391/183 105/387/183 108/400/183
f 2/5/1 4/11/184 3/10/2
f 4/12/4 8/25/185 7/22/5
f 7/23/7 8/26/186 6/18/8
f 5/16/10 6/19/187 2/6/11
f 7/24/13 5/17/13 1/3/13
f 8/27/14 4/13/188 10/36/15
f 6/20/18 8/28/189 11/40/19
f 4/14/21 2/7/190 9/31/22
f 6/21/24 12/44/191 9/32/25
f 15/52/30 17/60/30 16/57/31
f 16/58/32 17/61/192 21/74/33
f 20/71/35 21/75/35 19/66/35
f 19/67/36 15/53/193 14/50/37
f 20/72/13 18/65/13 14/51/13
f 17/62/39 23/83/194 24/87/40
f 19/68/43 21/76/43 24/88/43
f 15/54/44 22/80/45 23/84/45
f 15/55/46 19/69/195 25/92/47
f 28/100/52 30/107/52 29/105/52
f 29/106/53 30/108/196 34/122/54
f 33/119/56 34/123/56 32/114/56
f 32/115/57 28/101/197 27/98/58
f 33/120/60 31/113/60 27/99/60
f 30/109/61 36/132/198 37/135/62
f 32/116/65 34/124/65 37/136/65
f 30/110/66 28/102/66 35/128/66
f 28/103/67 32/117/199 38/140/68
f 41/149/73 43/155/200 42/154/74
f 43/156/76 47/169/201 46/166/77
f 46/167/79 47/170/202 45/162/80
f 44/160/82 45/163/203 41/150/83
f 46/168/13 44/161/13 40/147/13
f 47/171/85 43/157/204 49/180/86
f 45/164/89 47/172/205 50/184/90
f 43/158/92 41/151/206 48/175/93
f 45/165/95 51/188/207 48/176/96
f 54/196/101 56/204/101 55/202/101
f 56/205/102 60/218/117 59/215/103
f 60/219/104 58/210/104 57/207/104
f 57/208/105 58/211/208 54/197/106
f 59/216/107 57/209/107 53/195/107
f 58/212/108 60/220/108 63/230/108
f 61/222/109 64/234/209 68/252/110
f 54/198/112 61/223/113 62/226/113
f 54/199/106 58/213/208 64/235/114
f 56/206/102 62/227/210 63/231/116
f 62/228/119 66/243/211 67/247/120
f 64/236/122 63/232/122 67/248/122
f 61/224/113 65/240/123 66/244/123
f 71/260/127 73/268/127 72/264/127
f 72/265/128 73/269/212 77/282/129
f 76/279/131 77/283/131 75/275/131
f 75/276/132 71/261/213 70/259/133
f 72/266/135 76/280/135 74/273/135
f 73/270/136 79/291/214 80/295/137
f 77/284/140 80/296/140 81/299/140
f 71/262/141 78/288/141 79/292/141
f 71/263/142 75/277/215 81/300/143
f 84/308/148 86/315/148 85/313/148
f 85/314/149 86/316/216 90/330/150
f 89/327/152 90/331/152 88/322/152
f 88/323/153 84/309/217 83/306/154
f 89/328/156 87/321/156 83/307/156
f 86/317/157 92/340/218 93/343/158
f 88/324/161 90/332/161 93/344/161
f 86/318/162 84/310/162 91/336/162
f 84/311/163 88/325/219 94/348/164
f 96/354/169 97/357/169 99/363/169
f 98/361/170 99/364/171 103/377/171
f 103/378/172 101/371/172 100/368/172
f 101/372/173 97/358/173 96/355/174
f 98/362/175 102/376/175 100/369/175
f 103/379/171 99/365/171 105/388/176
f 103/380/178 106/392/178 107/395/178
f 99/366/179 97/359/179 104/383/179
f 101/373/173 107/396/180 104/384/180
