# Blender 3.4.1
# www.blender.org
mtllib Mushroom.mtl
o Mushroom2
v -0.122721 -0.017774 -0.001746
v -0.067024 0.107815 -0.002443
v -0.087013 -0.020912 -0.095868
v -0.047037 0.131891 -0.063312
v 0.000232 -0.020795 -0.130557
v 0.006315 0.162047 -0.088107
v 0.069486 -0.018773 -0.077956
v 0.059108 0.170919 -0.059525
v 0.089022 -0.014931 0.015473
v 0.079015 0.173436 0.004203
v 0.071155 -0.012140 0.095116
v 0.061244 0.165119 0.061865
v 0.007569 -0.005529 0.130157
v 0.013570 0.132479 0.083454
v -0.076408 -0.008395 0.092108
v -0.041240 0.107987 0.058046
v -0.058167 0.398681 -0.067512
v -0.084529 0.398681 -0.002293
v 0.005871 0.398996 -0.094581
v 0.064017 0.402090 -0.064224
v 0.085088 0.404892 0.004151
v 0.065131 0.402090 0.065752
v 0.007446 0.398996 0.089233
v -0.057053 0.398681 0.062465
v -0.278028 0.285947 -0.056240
v -0.134091 0.646686 -0.045023
v -0.140418 0.277399 -0.244465
v -0.072785 0.642878 -0.128878
v 0.089890 0.285413 -0.280961
v 0.020349 0.643878 -0.144949
v 0.273093 0.304968 -0.145508
v 0.086549 0.647959 -0.083738
v 0.278565 0.323061 0.077022
v 0.091192 0.653859 0.018815
v 0.140955 0.331609 0.265247
v 0.029887 0.657667 0.102670
v -0.059126 0.325605 0.308908
v -0.061455 0.657153 0.118705
v -0.242328 0.306049 0.173455
v -0.127655 0.653072 0.057495
v -0.011079 0.792440 -0.024465
v -0.197396 0.440917 -0.047201
v -0.100584 0.434903 -0.179623
v 0.061444 0.440541 -0.205299
v 0.193730 0.454525 -0.109199
v 0.212646 0.468185 0.051016
v 0.115854 0.474204 0.183437
v -0.039994 0.469043 0.210495
v -0.172281 0.455060 0.114395
vn -0.9161 0.3187 -0.2432
vn -0.8869 0.3536 -0.2974
vn -0.8606 0.3798 -0.3392
vn -0.4692 0.2302 -0.8526
vn -0.3919 0.2665 -0.8806
vn -0.3547 0.2827 -0.8912
vn 0.4936 0.1241 -0.8608
vn 0.5684 0.1532 -0.8084
vn 0.5937 0.1632 -0.7880
vn 0.9610 0.0446 -0.2729
vn 0.9717 0.0647 -0.2273
vn 0.9756 0.0735 -0.2070
vn 0.9684 0.0894 0.2330
vn 0.9565 0.0749 0.2821
vn 0.9721 0.0946 0.2148
vn 0.4457 0.2469 0.8605
vn 0.3351 0.2075 0.9190
vn 0.4866 0.2610 0.8337
vn -0.4039 -0.0351 0.9141
vn -0.3866 -0.0299 0.9218
vn -0.4070 -0.0360 0.9127
vn -0.4293 0.3455 0.8345
vn -0.4709 0.3198 0.8222
vn -0.3944 0.3659 0.8429
vn -0.8485 0.3735 0.3749
vn -0.8517 0.3704 0.3707
vn -0.8450 0.3769 0.3793
vn -0.0264 -0.9982 0.0538
vn -0.0279 -0.9903 0.1362
vn -0.0059 -0.9958 0.0909
vn -0.0321 0.9995 0.0034
vn -0.0269 0.9990 -0.0362
vn -0.0326 0.9992 -0.0245
vn -0.4042 -0.0306 -0.9142
vn -0.3919 -0.0268 -0.9196
vn -0.3891 -0.0259 -0.9208
vn 0.9555 -0.0212 0.2942
vn 0.9522 -0.0242 0.3046
vn 0.9563 -0.0205 0.2918
vn -0.9185 -0.0559 0.3914
vn -0.9190 -0.0556 0.3902
vn -0.9191 -0.0555 0.3900
vn -0.9398 -0.0549 -0.3373
vn -0.9287 -0.0464 -0.3679
vn -0.9262 -0.0445 -0.3744
vn 0.4765 -0.0239 -0.8788
vn 0.4662 -0.0271 -0.8843
vn 0.4638 -0.0278 -0.8855
vn 0.4133 -0.0115 0.9105
vn 0.3836 -0.0198 0.9233
vn 0.4182 -0.0101 0.9083
vn 0.9547 -0.0261 -0.2964
vn 0.9554 -0.0253 -0.2941
vn 0.9556 -0.0251 -0.2935
vn -0.7773 0.2453 -0.5794
vn -0.1620 0.2520 -0.9541
vn -0.1643 0.2532 -0.9534
vn -0.1600 0.2510 -0.9547
vn 0.5452 0.3738 -0.7504
vn 0.5849 0.3562 -0.7287
vn 0.5151 0.3861 -0.7652
vn 0.8478 0.5211 -0.0982
vn 0.8533 0.5068 -0.1224
vn 0.8575 0.4940 -0.1434
vn 0.6926 0.5367 0.4819
vn 0.6927 0.5367 0.4819
vn 0.1468 0.4494 0.8812
vn 0.1418 0.4512 0.8811
vn 0.1380 0.4525 0.8810
vn 0.1196 0.7003 0.7038
vn -0.6231 0.3266 0.7107
vn -0.6002 0.3135 0.7358
vn -0.5809 0.3025 0.7557
vn -0.9578 0.2772 0.0763
vn -0.9589 0.2651 0.1016
vn -0.9592 0.2527 0.1270
vn 0.0473 -0.9957 0.0798
vn 0.8130 0.5781 -0.0701
vn -0.5011 0.7101 0.4946
vn -0.1417 0.6053 -0.7833
vn 0.6481 0.6175 0.4458
vn -0.7647 0.6443 0.0079
vn -0.6314 0.6019 -0.4890
vn 0.5223 0.6011 -0.6049
vn -0.8852 0.4549 0.0978
vn -0.5399 0.5212 0.6610
vn -0.5405 0.5206 0.6609
vn -0.5437 0.5175 0.6607
vn 0.1478 0.5278 0.8364
vn 0.1491 0.5291 0.8354
vn 0.1634 0.5432 0.8235
vn 0.7385 0.4287 0.5204
vn 0.7385 0.4286 0.5204
vn 0.7385 0.4286 0.5205
vn 0.8912 0.4440 -0.0926
vn 0.8945 0.4358 -0.0998
vn 0.8756 0.4793 -0.0605
vn 0.4973 0.4489 -0.7424
vn 0.4970 0.4483 -0.7430
vn 0.4986 0.4522 -0.7396
vn -0.1567 0.4096 -0.8987
vn -0.7272 0.4104 -0.5503
vn -0.9380 0.2869 -0.1945
vn -0.5075 0.2109 -0.8355
vn 0.4587 0.1108 -0.8817
vn 0.9536 0.0328 -0.2992
vn 0.9506 0.0686 0.3029
vn 0.2927 0.1921 0.9367
vn -0.3830 -0.0288 0.9233
vn -0.5074 0.2959 0.8093
vn -0.8567 0.3654 0.3641
vn 0.0078 -0.9979 0.0639
vn -0.0029 -0.9989 0.0467
vn 0.0098 -0.9994 0.0342
vn 0.0102 -0.9993 0.0352
vn 0.0109 -0.9997 0.0241
vn -0.0265 0.9983 -0.0510
vn -0.0366 0.9993 -0.0000
vn -0.0330 0.9991 0.0261
vn -0.0274 0.9986 0.0442
vn -0.0404 0.9987 0.0323
vn -0.4066 -0.0313 -0.9131
vn 0.9514 -0.0249 0.3071
vn -0.9184 -0.0559 0.3916
vn -0.9417 -0.0565 -0.3316
vn 0.4790 -0.0231 -0.8775
vn 0.3779 -0.0214 0.9256
vn 0.9545 -0.0263 -0.2971
vn -0.1671 0.2547 -0.9525
vn 0.6284 0.3353 -0.7019
vn 0.8403 0.5377 -0.0690
vn 0.6926 0.5367 0.4820
vn 0.1522 0.4474 0.8813
vn -0.6493 0.3416 0.6795
vn -0.9551 0.2934 0.0417
vn -0.5358 0.5251 0.6612
vn 0.1306 0.5106 0.8499
vn 0.7385 0.4287 0.5203
vn 0.9107 0.3885 -0.1406
vn 0.4954 0.4441 -0.7466
vt 0.998999 0.101001
vt 0.898999 0.698999
vt 0.198999 0.543450
vt 0.901001 0.101001
vt 0.801001 0.698999
vt 0.398999 0.698999
vt 0.601001 0.401001
vt 0.098999 0.901001
vt 0.998999 0.198999
vt 0.128311 0.598999
vt 0.901001 0.198999
vt 0.001001 0.901001
vt 0.198999 0.601001
vt 0.698999 0.401001
vt 0.698999 0.198999
vt 0.098999 0.998999
vt 0.038409 0.593012
vt 0.001001 0.998999
vt 0.698999 0.001001
vt 0.198999 0.698999
vt 0.598999 0.601001
vt 0.201001 0.498999
vt 0.601001 0.198999
vt 0.001001 0.530159
vt 0.601001 0.001001
vt 0.398999 0.498999
vt 0.598999 0.698999
vt 0.198999 0.701001
vt 0.201001 0.401001
vt 0.998999 0.001001
vt 0.023780 0.455392
vt 0.398999 0.401001
vt 0.901001 0.001001
vt 0.601001 0.201001
vt 0.198999 0.798999
vt 0.998999 0.098999
vt 0.898999 0.801001
vt 0.072951 0.403981
vt 0.698999 0.201001
vt 0.901001 0.098999
vt 0.801001 0.801001
vt 0.701001 0.001001
vt 0.898999 0.898999
vt 0.142759 0.401001
vt 0.898999 0.701001
vt 0.798999 0.001001
vt 0.801001 0.898999
vt 0.401001 0.301001
vt 0.801001 0.701001
vt 0.898999 0.798999
vt 0.898999 0.601001
vt 0.198999 0.458601
vt 0.498999 0.301001
vt 0.801001 0.798999
vt 0.801001 0.601001
vt 0.398999 0.601001
vt 0.698999 0.598999
vt 0.898999 0.568761
vt 0.001001 0.601001
vt 0.201001 0.698999
vt 0.870418 0.598999
vt 0.601001 0.598999
vt 0.001001 0.698999
vt 0.898999 0.526447
vt 0.401001 0.601001
vt 0.401001 0.698999
vt 0.869945 0.501001
vt 0.001001 0.701001
vt 0.001001 0.798999
vt 0.829081 0.505354
vt 0.601001 0.398999
vt 0.801001 0.531195
vt 0.698999 0.398999
vt 0.701001 0.198999
vt 0.401001 0.498999
vt 0.801498 0.569149
vt 0.798999 0.198999
vt 0.498999 0.498999
vt 0.830055 0.598955
vt 0.201001 0.601001
vt 0.898999 0.198999
vt 0.001001 0.281463
vt 0.598999 0.301001
vt 0.498999 0.298999
vt 0.401001 0.101001
vt 0.798999 0.201001
vt 0.398999 0.801001
vt 0.598999 0.498999
vt 0.001001 0.117172
vt 0.398999 0.598999
vt 0.598999 0.098999
vt 0.497998 0.101001
vt 0.701001 0.201001
vt 0.598999 0.898999
vt 0.598999 0.101001
vt 0.201001 0.598999
vt 0.124916 0.001001
vt 0.598999 0.002002
vt 0.401001 0.097998
vt 0.598999 0.801001
vt 0.798999 0.401001
vt 0.598999 0.598999
vt 0.296666 0.002366
vt 0.598999 0.298999
vt 0.102002 0.998999
vt 0.401001 0.001001
vt 0.701001 0.401001
vt 0.598999 0.798999
vt 0.398999 0.126969
vt 0.898999 0.201001
vt 0.401001 0.598999
vt 0.198999 0.998999
vt 0.101001 0.901001
vt 0.598999 0.701001
vt 0.698999 0.601001
vt 0.898999 0.398999
vt 0.398999 0.291260
vt 0.898999 0.401001
vt 0.398999 0.798999
vt 0.197998 0.901001
vt 0.601001 0.601001
vt 0.198999 0.898999
vt 0.296666 0.398999
vt 0.898999 0.498999
vt 0.798999 0.898999
vt 0.398999 0.702002
vt 0.201001 0.797998
vt 0.198999 0.801001
vt 0.798999 0.601001
vt 0.601001 0.898999
vt 0.124917 0.397634
vt 0.898999 0.001001
vt 0.201001 0.701001
vt 0.402002 0.298999
vt 0.701001 0.601001
vt 0.398999 0.898999
vt 0.202002 0.798999
vt 0.198999 0.902002
vt 0.397998 0.701001
vt 0.402002 0.098999
vt 0.101001 0.997998
vt 0.498999 0.102002
vt 0.401001 0.297998
vt 0.597998 0.001001
vt 0.798999 0.398999
vt 0.201001 0.801001
vt 0.801001 0.198999
vt 0.501001 0.301001
vt 0.701001 0.398999
vt 0.401001 0.898999
vt 0.398999 0.501001
vt 0.501001 0.498999
vt 0.401001 0.801001
vt 0.798999 0.598999
vt 0.501001 0.101001
vt 0.201001 0.501001
vt 0.701001 0.598999
vt 0.401001 0.798999
vt 0.598999 0.501001
vt 0.501001 0.298999
vt 0.698999 0.798999
vt 0.401001 0.701001
vt 0.801001 0.201001
vt 0.401001 0.501001
vt 0.001001 0.898999
vt 0.601001 0.798999
vt 0.801001 0.401001
vt 0.801001 0.398999
vt 0.798999 0.798999
vt 0.001001 0.801001
vt 0.798999 0.801001
vt 0.801001 0.498999
vt 0.201001 0.898999
vt 0.701001 0.798999
vt 0.801001 0.001001
vt 0.601001 0.801001
s 1
usemtl Mushroom4_1
f 2/4/1 3/9/2 1/1/3
f 4/12/4 5/16/5 3/8/6
f 6/19/7 7/23/8 5/15/9
f 8/26/10 9/29/11 7/22/12
f 9/30/13 12/40/14 11/36/15
f 11/37/16 14/47/17 13/43/18
f 14/48/19 24/78/20 16/53/21
f 13/45/22 16/54/23 15/50/24
f 15/51/25 2/5/26 1/2/27
f 11/38/28 13/44/29 15/52/30
f 21/70/31 20/67/32 17/58/33
f 6/20/34 17/59/35 19/63/36
f 10/34/37 22/73/38 12/39/39
f 2/6/40 24/80/41 18/60/42
f 4/14/43 18/62/44 17/57/45
f 8/27/46 19/65/47 20/66/48
f 12/42/49 23/77/50 14/46/51
f 10/35/52 20/68/53 21/69/54
f 2/4/1 4/11/103 3/9/2
f 4/12/4 6/18/104 5/16/5
f 6/19/7 8/25/105 7/23/8
f 8/26/10 10/32/106 9/29/11
f 9/30/13 10/33/107 12/40/14
f 11/37/16 12/41/108 14/47/17
f 14/48/19 23/75/109 24/78/20
f 13/45/22 14/49/110 16/54/23
f 15/51/25 16/55/111 2/5/26
f 15/52/30 1/3/112 9/31/113
f 1/3/112 3/10/114 7/24/115
f 3/10/114 5/17/116 7/24/115
f 7/24/115 9/31/113 1/3/112
f 9/31/113 11/38/28 15/52/30
f 19/64/117 17/58/33 20/67/32
f 17/58/33 18/61/118 21/70/31
f 18/61/118 24/79/119 21/70/31
f 24/79/119 23/76/120 21/70/31
f 23/76/120 22/72/121 21/70/31
f 6/20/34 4/13/122 17/59/35
f 10/34/37 21/71/123 22/73/38
f 2/6/40 16/56/124 24/80/41
f 4/14/43 2/7/125 18/62/44
f 8/27/46 6/21/126 19/65/47
f 12/42/49 22/74/127 23/77/50
f 10/35/52 8/28/128 20/68/53
usemtl Mushroom4_2
f 42/145/55 28/93/55 43/149/55
f 43/150/56 30/100/57 44/153/58
f 44/154/59 32/107/60 45/157/61
f 32/108/62 46/162/63 45/158/64
f 34/115/65 47/166/65 46/161/66
f 36/122/67 48/170/68 47/165/69
f 38/126/70 36/119/70 41/137/70
f 38/129/71 49/174/72 48/169/73
f 40/136/74 42/146/75 49/173/76
f 35/117/77 37/123/77 39/131/77
f 34/112/78 32/105/78 41/138/78
f 40/133/79 38/127/79 41/139/79
f 30/98/80 28/91/80 41/140/80
f 36/120/81 34/113/81 41/141/81
f 26/84/82 40/134/82 41/142/82
f 28/92/83 26/85/83 41/143/83
f 32/106/84 30/99/84 41/144/84
f 39/132/85 42/147/85 25/81/85
f 37/125/86 49/176/87 39/130/88
f 35/118/89 48/172/90 37/124/91
f 33/110/92 47/168/93 35/116/94
f 45/159/95 33/111/96 31/102/97
f 44/155/98 31/104/99 29/95/100
f 27/90/101 44/156/101 29/96/101
f 25/83/102 43/152/102 27/88/102
f 42/145/55 26/86/55 28/93/55
f 43/150/56 28/94/129 30/100/57
f 44/154/59 30/101/130 32/107/60
f 32/108/62 34/114/131 46/162/63
f 34/115/65 36/121/132 47/166/65
f 36/122/67 38/128/133 48/170/68
f 38/129/71 40/135/134 49/174/72
f 40/136/74 26/87/135 42/146/75
f 39/131/77 25/82/77 33/109/77
f 25/82/77 27/89/77 33/109/77
f 27/89/77 29/97/77 33/109/77
f 29/97/77 31/103/77 33/109/77
f 33/109/77 35/117/77 39/131/77
f 39/132/85 49/175/85 42/147/85
f 37/125/86 48/171/136 49/176/87
f 35/118/89 47/167/137 48/172/90
f 33/110/92 46/163/138 47/168/93
f 45/159/95 46/164/139 33/111/96
f 44/155/98 45/160/140 31/104/99
f 27/90/101 43/151/101 44/156/101
f 25/83/102 42/148/102 43/152/102
