# Blender 3.4.1
# www.blender.org
mtllib Rock.mtl
o Rock3
v -0.176398 -0.088656 -0.589796
v -0.553438 -0.074046 -0.039060
v 0.470767 -0.099591 -0.376157
v 0.435298 -0.074500 0.273490
v -0.124074 0.224916 0.394506
v 0.273069 0.345472 0.245749
v 0.538869 0.194520 -0.069283
v 0.003324 -0.174621 -0.048183
v -0.171574 -0.097522 0.504235
v -0.405639 0.356750 -0.146118
v 0.034626 0.344592 -0.427606
v -0.324828 0.333116 0.278218
vn -0.4572 0.4984 -0.7366
vn -0.9122 0.3611 0.1938
vn 0.3423 0.1930 0.9196
vn -0.1785 -0.9792 -0.0962
vn -0.8153 0.1401 -0.5619
vn 0.9557 -0.2873 0.0633
vn -0.1759 -0.9811 0.0812
vn 0.3103 0.1970 -0.9300
vn -0.8179 0.0109 0.5753
vn 0.0393 -0.9848 -0.1693
vn 0.5938 0.5110 -0.6215
vn 0.3673 0.9208 -0.1313
vn 0.2626 0.2760 0.9246
vn 0.0205 0.7493 0.6619
vn 0.1014 -0.9804 0.1689
vn 0.1912 -0.9804 0.0483
vn -0.3229 0.3472 0.8805
vn 0.7928 0.3397 0.5061
vn 0.0562 0.9974 0.0448
vn -0.0203 0.9998 0.0059
vt 0.335335 0.856142
vt 0.998999 0.573431
vt 0.665666 0.287716
vt 0.664665 0.286715
vt 0.332332 0.002002
vt 0.665666 0.002002
vt 0.668669 0.856142
vt 0.665666 0.570428
vt 0.997998 0.572430
vt 0.334334 0.855141
vt 0.668669 0.284713
vt 0.334334 0.569427
vt 0.002002 0.284713
vt 0.667668 0.286715
vt 0.001001 0.855141
vt 0.998999 0.570428
vt 0.998999 0.002002
vt 0.002002 0.856142
vt 0.331331 0.572430
vt 0.334334 0.283712
vt 0.667668 0.001001
vt 0.332332 0.998999
vt 0.001001 0.858144
vt 0.668669 0.570428
vt 0.002002 0.570428
vt 0.667668 0.283712
vt 0.002002 0.998999
vt 0.664665 0.001001
vt 0.001001 0.001001
vt 0.998999 0.284713
vt 0.997998 0.286715
vt 0.332332 0.570428
vt 0.334334 0.001001
vt 0.998999 0.856142
vt 0.667668 0.572430
vt 0.332332 0.284713
vt 0.332332 0.856142
vt 0.001001 0.572430
vt 0.998999 0.287716
vt 0.667668 0.855141
vt 0.664665 0.572430
vt 0.997998 0.001001
vt 0.332332 0.573431
vt 0.331331 0.858144
vt 0.665666 0.573431
vt 0.665666 0.284713
vt 0.335335 0.570428
vt 0.001001 0.286715
vt 0.665666 0.856142
vt 0.334334 0.286715
vt 0.667668 0.569427
vt 0.332332 0.287716
vt 0.001001 0.569427
vt 0.001001 0.283712
vt 0.335335 0.284713
vt 0.334334 0.572430
vt 0.332332 0.859145
vt 0.001001 0.997998
vt 0.331331 0.286715
vt 0.331331 0.001001
s 1
usemtl Rock1_1.001
f 1/1/1 10/45/1 11/49/1
f 10/46/2 2/6/2 12/55/2
f 9/39/3 4/16/3 6/24/3
f 2/7/4 1/2/4 8/34/4
f 2/8/5 10/47/5 1/3/5
f 4/17/6 3/11/6 7/30/6
f 9/40/7 2/9/7 8/35/7
f 3/12/8 1/4/8 11/50/8
f 9/41/9 12/56/9 2/10/9
f 1/5/10 3/13/10 8/36/10
f 7/31/11 3/14/11 11/51/11
f 6/25/12 7/32/12 11/52/12
f 5/21/13 9/42/13 6/26/13
f 5/22/14 6/27/14 12/57/14
f 4/18/15 9/43/15 8/37/15
f 3/15/16 4/19/16 8/38/16
f 12/58/17 9/44/17 5/23/17
f 4/20/18 7/33/18 6/28/18
f 12/59/19 11/53/19 10/48/19
f 11/54/20 12/60/20 6/29/20
